<svg viewBox="0 0 397 97" xmlns="http://www.w3.org/2000/svg" fill-rule="evenodd" clip-rule="evenodd" stroke-linejoin="round" stroke-miterlimit="2"><path fill="none" d="M0 0H397V96.858H0z"/><clipPath id="a"><path d="M0 0H397V96.858H0z"/></clipPath><g clip-path="url(#a)"><path d="M374.05 0H22.959c-.884 0-1.755 0-2.637.005-.737.005-1.469.019-2.213.031-1.601.041-3.224.141-4.826.429a15.933 15.933 0 0 0-4.575 1.518 15.42 15.42 0 0 0-3.899 2.855 15.09 15.09 0 0 0-2.837 3.925C1.223 10.235.747 11.749.467 13.371c-.291 1.603-.39 3.226-.433 4.848-.022.743-.024 1.487-.034 2.23v55.969c.01.753.012 1.48.034 2.233.043 1.622.142 3.245.433 4.848.28 1.622.756 3.143 1.505 4.61a14.955 14.955 0 0 0 2.837 3.908 15.065 15.065 0 0 0 3.899 2.855c1.466.758 2.964 1.235 4.575 1.528 1.602.288 3.225.383 4.826.429.744.017 1.476.024 2.213.024.882.005 1.753.005 2.637.005H374.05c.867 0 1.746 0 2.611-.005.734 0 1.488-.007 2.22-.024 1.614-.046 3.232-.141 4.816-.429 1.614-.293 3.114-.77 4.598-1.528a15.16 15.16 0 0 0 3.894-2.855 15.427 15.427 0 0 0 2.844-3.908 15.994 15.994 0 0 0 1.49-4.61c.299-1.603.393-3.226.448-4.848.01-.753.01-1.48.01-2.233.019-.879.019-1.755.019-2.649V23.093c0-.888 0-1.767-.019-2.644 0-.743 0-1.487-.01-2.23-.055-1.622-.149-3.245-.448-4.848a16.03 16.03 0 0 0-1.49-4.608 15.569 15.569 0 0 0-2.844-3.925 15.519 15.519 0 0 0-3.894-2.855 16.23 16.23 0 0 0-4.598-1.518c-1.584-.288-3.202-.388-4.816-.429-.732-.012-1.486-.026-2.22-.031C375.796 0 374.917 0 374.05 0z" fill="#a6a6a6" fill-rule="nonzero"/><path d="M20.334 94.739c-.734 0-1.449-.007-2.177-.024-1.346-.039-2.942-.114-4.5-.395-1.472-.269-2.777-.702-3.991-1.327a13.05 13.05 0 0 1-3.364-2.463 12.931 12.931 0 0 1-2.459-3.38c-.623-1.223-1.05-2.535-1.305-4.015-.296-1.627-.371-3.281-.402-4.54-.014-.508-.036-2.211-.036-2.211V20.449s.022-1.676.036-2.167c.031-1.269.106-2.92.4-4.533.255-1.487.684-2.797 1.307-4.024a13.043 13.043 0 0 1 2.445-3.386 13.367 13.367 0 0 1 3.376-2.474 14 14 0 0 1 3.983-1.318c1.621-.293 3.265-.365 4.515-.397l2.175-.031h356.314l2.199.031c1.233.032 2.878.104 4.474.395 1.452.254 2.765.688 4.024 1.327A13.268 13.268 0 0 1 390.7 6.33a13.511 13.511 0 0 1 2.464 3.402 13.929 13.929 0 0 1 1.288 3.99c.28 1.528.366 3.097.419 4.572.007.685.007 1.421.007 2.155.02.908.02 1.773.02 2.644v50.676c0 .882 0 1.739-.02 2.603 0 .79 0 1.511-.009 2.252-.051 1.426-.137 2.996-.412 4.49-.248 1.484-.672 2.796-1.3 4.043a13.194 13.194 0 0 1-2.447 3.354 13.043 13.043 0 0 1-3.369 2.477c-1.25.637-2.524 1.061-4.017 1.332-1.543.281-3.14.356-4.501.395-.705.017-1.445.024-2.162.024l-2.611.005-353.716-.005z" fill="#fff" fill-rule="nonzero"/><g><clipPath id="b"><path d="M215.089 45.206a2.61 2.61 0 0 0 3.6-.929 2.673 2.673 0 0 0-.916-3.641c-10.429-6.257-26.926-6.847-36.852-3.801-1.39.428-2.171 1.91-1.751 3.315a2.622 2.622 0 0 0 3.278 1.77c8.644-2.652 23.583-2.152 32.641 3.286zm-.295 8.056a2.232 2.232 0 0 0-.722-3.046c-8.673-5.39-21.359-6.906-31.564-3.775a2.22 2.22 0 0 0-1.46 2.764 2.19 2.19 0 0 0 2.734 1.475c8.933-2.742 20.446-1.383 27.999 3.31a2.178 2.178 0 0 0 3.013-.728zm-3.439 7.735a1.78 1.78 0 0 0-.582-2.435c-7.406-4.577-16.586-5.641-27.289-3.167a1.769 1.769 0 0 0-1.318 2.12 1.752 1.752 0 0 0 2.097 1.332c9.782-2.258 18.085-1.339 24.683 2.74.825.51 1.904.246 2.409-.59zM198.469 20.02c15.519 0 28.097 12.72 28.097 28.409 0 15.691-12.578 28.409-28.097 28.409-15.519 0-28.097-12.718-28.097-28.409 0-15.689 12.578-28.409 28.097-28.409zm48.346 26.228c5.91 1.453 8.322 3.709 8.322 7.788 0 4.826-3.648 7.945-9.294 7.945-3.989 0-7.687-1.434-10.693-4.147a.324.324 0 0 1-.031-.445l2.657-3.196a.307.307 0 0 1 .217-.114.329.329 0 0 1 .233.078c2.585 2.26 4.893 3.225 7.726 3.225 2.548 0 4.133-1.115 4.133-2.909 0-1.62-.784-2.526-5.425-3.607-5.455-1.332-8.61-3.059-8.61-7.935 0-4.548 3.659-7.728 8.897-7.728 3.563 0 6.61 1.069 9.317 3.264.13.107.156.298.06.438l-2.368 3.375a.306.306 0 0 1-.209.131.314.314 0 0 1-.241-.058c-2.275-1.714-4.443-2.549-6.632-2.549-2.255 0-3.775 1.098-3.775 2.728 0 1.724.866 2.546 5.716 3.716zm25.19 5.467c0-3.39-2.147-5.849-5.105-5.849-2.97 0-5.211 2.514-5.211 5.849 0 3.334 2.241 5.848 5.211 5.848 3.006 0 5.105-2.405 5.105-5.848zm-4.097-10.305c4.544 0 9.146 3.54 9.146 10.305 0 6.762-4.602 10.302-9.146 10.302-2.448 0-4.454-.919-6.11-2.795v7.88a.318.318 0 0 1-.318.321h-4.342a.318.318 0 0 1-.318-.321V42.133a.32.32 0 0 1 .318-.322h4.342a.32.32 0 0 1 .318.322v2.248c1.656-1.997 3.662-2.971 6.11-2.971zm20.943 16.187c3.143 0 5.425-2.442 5.425-5.81 0-3.356-2.364-5.885-5.497-5.885-3.124 0-5.389 2.445-5.389 5.813 0 3.353 2.347 5.882 5.461 5.882zm0-16.187c5.836 0 10.404 4.526 10.404 10.305 0 5.798-4.602 10.341-10.476 10.341-5.814 0-10.368-4.512-10.368-10.269 0-5.819 4.585-10.377 10.44-10.377zm22.906.401a.32.32 0 0 1 .317.322v3.774a.319.319 0 0 1-.317.322h-4.781v9.081c0 1.434.623 2.072 2.015 2.072.907 0 1.715-.196 2.552-.621a.315.315 0 0 1 .459.287v3.596a.32.32 0 0 1-.159.278c-1.219.698-2.513 1.022-4.071 1.022-3.83 0-5.773-1.999-5.773-5.947v-9.768h-2.089a.319.319 0 0 1-.318-.322v-3.774a.32.32 0 0 1 .318-.322h2.089v-4.942a.32.32 0 0 1 .317-.321h4.343a.32.32 0 0 1 .317.321v4.942h4.781zm16.654.02h7.422c.13 0 .25.082.296.208l5.074 13.387 4.633-13.38a.32.32 0 0 1 .301-.215h4.523c.103 0 .199.053.259.14a.315.315 0 0 1 .034.297l-7.536 19.691c-1.563 4.064-3.335 5.575-6.543 5.575-1.714 0-3.101-.36-4.64-1.201a.319.319 0 0 1-.135-.416l1.472-3.267a.315.315 0 0 1 .44-.147c.824.454 1.63.687 2.395.687.947 0 1.642-.317 2.346-1.898l-6.213-15.063h-4.056v15.067a.32.32 0 0 1-.318.322h-4.345a.32.32 0 0 1-.315-.322V46.229h-2.087a.321.321 0 0 1-.32-.322v-3.793c0-.177.145-.322.32-.322h2.087v-.928c0-4.321 2.121-6.606 6.132-6.606 1.649 0 2.751.266 3.611.525a.32.32 0 0 1 .224.309v3.702a.325.325 0 0 1-.13.261.316.316 0 0 1-.286.043c-.815-.275-1.544-.456-2.448-.456-1.519 0-2.197.797-2.197 2.582v.607zm-9.655-.02a.32.32 0 0 1 .318.322v19.163a.32.32 0 0 1-.318.322h-4.342a.322.322 0 0 1-.32-.322V42.133c0-.177.144-.322.32-.322h4.342zm-2.149-8.726c1.719 0 3.116 1.41 3.116 3.151 0 1.741-1.397 3.15-3.116 3.15-1.722 0-3.117-1.409-3.117-3.15 0-1.741 1.395-3.151 3.117-3.151zm38.234 10.632h-.796v1.027h.796c.397 0 .633-.196.633-.515 0-.334-.236-.512-.633-.512zm.515 1.465l.865 1.223h-.731l-.776-1.122h-.669v1.122h-.61V43.16h1.43c.746 0 1.236.387 1.236 1.035 0 .532-.305.859-.745.987zm-.678-3.1c-1.566 0-2.751 1.257-2.751 2.8 0 1.54 1.178 2.78 2.736 2.78 1.566 0 2.751-1.257 2.751-2.799 0-1.541-1.178-2.781-2.736-2.781zm-.015 5.89c-1.719 0-3.058-1.395-3.058-3.09 0-1.697 1.356-3.107 3.073-3.107 1.719 0 3.058 1.395 3.058 3.088 0 1.697-1.356 3.109-3.073 3.109z"/></clipPath><g clip-path="url(#b)"><path fill="#23d660" fill-rule="nonzero" d="M158.349 7.93H369.759V88.92699999999999H158.349z"/></g><clipPath id="c"><path d="M47.402 55.45h-9.28V40.88h2.821v11.857h6.459v2.713zm6.725 0h-2.861V40.88h2.861v14.57zM69.11 44.352l-2.535.781c-.141-.8-.795-2.055-2.635-2.055-1.371 0-2.27.885-2.27 1.85 0 .803.512 1.438 1.575 1.644l2.022.392c2.638.512 4.047 2.239 4.047 4.294 0 2.241-1.859 4.502-5.232 4.502-3.843 0-5.538-2.488-5.764-4.563l2.616-.699c.123 1.439 1.126 2.733 3.17 2.733 1.512 0 2.349-.76 2.349-1.787 0-.844-.633-1.502-1.758-1.726l-2.022-.411c-2.311-.474-3.802-1.973-3.802-4.174 0-2.589 2.309-4.562 5.047-4.562 3.516 0 4.865 2.137 5.192 3.781zm15.271-.781h-4.578V55.45h-2.842V43.571h-4.579V40.88h11.999v2.691zM97.32 55.45h-9.075V40.88h9.075v2.672h-6.254v3.329h5.662v2.527h-5.662v3.37h6.254v2.672zm16.947 0h-2.965l-6.581-10.336V55.45H101.9V40.88h3.516l6.031 9.638V40.88h2.82v14.57zm13.677-7.294c0 3.288 2.289 4.85 4.516 4.85 2.248 0 4.537-1.562 4.537-4.85 0-3.289-2.289-4.851-4.537-4.851-2.227 0-4.516 1.562-4.516 4.851zm-2.924.019c0-4.705 3.516-7.604 7.44-7.604 3.946 0 7.461 2.899 7.461 7.604 0 4.686-3.515 7.585-7.461 7.585-3.924 0-7.44-2.899-7.44-7.585zm31.641 7.275h-2.962l-6.581-10.336V55.45h-2.821V40.88h3.516l6.028 9.638V40.88h2.82v14.57z"/></clipPath><g clip-path="url(#c)"><path fill-rule="nonzero" d="M26.1 28.482H168.684V67.84899999999999H26.1z"/></g></g></g></svg>