<svg viewBox="0 0 397 97" xmlns="http://www.w3.org/2000/svg" fill-rule="evenodd" clip-rule="evenodd" stroke-linejoin="round" stroke-miterlimit="2"><path fill="none" d="M0 0H397V96.858H0z"/><clipPath id="a"><path d="M0 0H397V96.858H0z"/></clipPath><g clip-path="url(#a)" fill-rule="nonzero"><path d="M374.05 0H22.959c-.884 0-1.755 0-2.637.005-.737.005-1.469.019-2.213.031-1.601.041-3.224.141-4.826.429a15.933 15.933 0 0 0-4.575 1.518 15.42 15.42 0 0 0-3.899 2.855 15.09 15.09 0 0 0-2.837 3.925C1.223 10.235.747 11.749.467 13.371c-.291 1.603-.39 3.226-.433 4.848-.022.743-.024 1.487-.034 2.23v55.969c.01.753.012 1.48.034 2.233.043 1.622.142 3.245.433 4.848.28 1.622.756 3.143 1.505 4.61a14.955 14.955 0 0 0 2.837 3.908 15.065 15.065 0 0 0 3.899 2.855c1.466.758 2.964 1.235 4.575 1.528 1.602.288 3.225.383 4.826.429.744.017 1.476.024 2.213.024.882.005 1.753.005 2.637.005H374.05c.867 0 1.746 0 2.611-.005.734 0 1.488-.007 2.22-.024 1.614-.046 3.232-.141 4.816-.429 1.614-.293 3.114-.77 4.598-1.528a15.16 15.16 0 0 0 3.894-2.855 15.427 15.427 0 0 0 2.844-3.908 15.994 15.994 0 0 0 1.49-4.61c.299-1.603.393-3.226.448-4.848.01-.753.01-1.48.01-2.233.019-.879.019-1.755.019-2.649V23.093c0-.888 0-1.767-.019-2.644 0-.743 0-1.487-.01-2.23-.055-1.622-.149-3.245-.448-4.848a16.03 16.03 0 0 0-1.49-4.608 15.569 15.569 0 0 0-2.844-3.925 15.519 15.519 0 0 0-3.894-2.855 16.23 16.23 0 0 0-4.598-1.518c-1.584-.288-3.202-.388-4.816-.429-.732-.012-1.486-.026-2.22-.031C375.796 0 374.917 0 374.05 0z" fill="#a6a6a6"/><path d="M20.334 94.739c-.734 0-1.449-.007-2.177-.024-1.346-.039-2.942-.114-4.5-.395-1.472-.269-2.777-.702-3.991-1.327a13.05 13.05 0 0 1-3.364-2.463 12.931 12.931 0 0 1-2.459-3.38c-.623-1.223-1.05-2.535-1.305-4.015-.296-1.627-.371-3.281-.402-4.54-.014-.508-.036-2.211-.036-2.211V20.449s.022-1.676.036-2.167c.031-1.269.106-2.92.4-4.533.255-1.487.684-2.797 1.307-4.024a13.043 13.043 0 0 1 2.445-3.386 13.367 13.367 0 0 1 3.376-2.474 14 14 0 0 1 3.983-1.318c1.621-.293 3.265-.365 4.515-.397l2.175-.031h356.314l2.199.031c1.233.032 2.878.104 4.474.395 1.452.254 2.765.688 4.024 1.327A13.268 13.268 0 0 1 390.7 6.33a13.511 13.511 0 0 1 2.464 3.402 13.929 13.929 0 0 1 1.288 3.99c.28 1.528.366 3.097.419 4.572.007.685.007 1.421.007 2.155.02.908.02 1.773.02 2.644v50.676c0 .882 0 1.739-.02 2.603 0 .79 0 1.511-.009 2.252-.051 1.426-.137 2.996-.412 4.49-.248 1.484-.672 2.796-1.3 4.043a13.194 13.194 0 0 1-2.447 3.354 13.043 13.043 0 0 1-3.369 2.477c-1.25.637-2.524 1.061-4.017 1.332-1.543.281-3.14.356-4.501.395-.705.017-1.445.024-2.162.024l-2.611.005-353.716-.005z" fill="#fff"/><g><path d="M77.497 68.848c-.588 1.503-1.949 3.62-3.875 5.114-1.113.862-2.442 1.685-4.265 2.227-1.946.579-4.342.778-7.323.778h-27.27c-2.981 0-5.377-.199-7.323-.778-1.826-.542-3.152-1.365-4.267-2.227-1.927-1.494-3.285-3.611-3.875-5.114-1.187-3.032-1.199-6.473-1.199-8.638V32.79c0-2.165.012-5.603 1.199-8.635.59-1.504 1.948-3.622 3.875-5.114 1.115-.862 2.441-1.688 4.267-2.23 1.946-.579 4.342-.775 7.323-.775h27.27c2.981 0 5.377.196 7.323.775 1.823.542 3.152 1.368 4.265 2.23 1.926 1.492 3.287 3.61 3.875 5.114 1.187 3.032 1.201 6.47 1.201 8.635v27.42c0 2.165-.014 5.606-1.201 8.638z" fill="url(#_Linear2)"/><path d="M47.958 32.618c6.577-.254 12.007 5.049 12.007 11.604 0 3.334-1.406 6.344-3.65 8.463a.899.899 0 0 0-.28.697 20.53 20.53 0 0 1-.021 2.448.28.28 0 0 0 .435.252 14.374 14.374 0 0 0 6.242-11.86c0-8.103-6.714-14.66-14.841-14.343-7.552.293-13.611 6.555-13.707 14.156a14.375 14.375 0 0 0 6.239 12.047.282.282 0 0 0 .439-.252 20.558 20.558 0 0 1-.025-2.448.896.896 0 0 0-.277-.697 11.617 11.617 0 0 1-3.648-8.776c.159-6.085 5.04-11.054 11.087-11.291zm.388-9.831c-11.6.034-21.103 9.494-21.247 21.159-.118 9.446 5.881 17.526 14.256 20.49.202.07.41-.099.376-.313-.109-.736-.212-1.472-.308-2.196a.737.737 0 0 0-.432-.581c-6.62-2.908-11.241-9.584-11.166-17.316.096-10.146 8.337-18.417 18.427-18.5 10.317-.082 18.735 8.33 18.735 18.684 0 7.654-4.599 14.248-11.166 17.132a.73.73 0 0 0-.431.584c-.097.721-.2 1.46-.308 2.193a.286.286 0 0 0 .378.313c8.293-2.935 14.256-10.889 14.256-20.222 0-11.836-9.594-21.458-21.37-21.427zm-4.898 19.679c0 2.756 2.22 4.988 4.958 4.988s4.959-2.232 4.959-4.988c0-2.753-2.221-4.986-4.959-4.986-2.738 0-4.958 2.233-4.958 4.986zm9.346 8.591c-.91-.963-2.507-1.583-4.393-1.583-1.885 0-3.482.62-4.392 1.583-.475.504-.725 1.02-.804 1.756-.152 1.424-.068 2.649.098 4.608.159 1.869.458 4.358.85 6.894.28 1.804.506 2.777.711 3.474.335 1.134 1.584 2.122 3.537 2.122 1.953 0 3.203-.988 3.538-2.122.205-.697.431-1.67.71-3.474.393-2.536.691-5.025.85-6.894.167-1.959.251-3.184.099-4.608-.079-.736-.33-1.252-.804-1.756z" fill="#fff"/><path d="M101.092 61.692h9.035L105.674 48.5h-.125l-4.457 13.192zm10.22 3.751h-11.4l-2.738 8.126h-4.826l10.795-30.071h5.017l10.795 30.071h-4.91l-2.733-8.126zm26.362-2.833c0-4.438-2.281-7.356-5.763-7.356-3.419 0-5.719 2.978-5.719 7.356 0 4.417 2.3 7.376 5.719 7.376 3.482 0 5.763-2.899 5.763-7.376zm4.599 0c0 6.812-3.626 11.189-9.098 11.189-3.106 0-5.574-1.397-6.86-3.835h-.104v10.858h-4.474V51.646h4.33v3.646h.084c1.242-2.351 3.896-3.874 6.94-3.874 5.534 0 9.182 4.397 9.182 11.192zm19.398 0c0-4.438-2.283-7.356-5.763-7.356-3.419 0-5.719 2.978-5.719 7.356 0 4.417 2.3 7.376 5.719 7.376 3.48 0 5.763-2.899 5.763-7.376zm4.6 0c0 6.812-3.627 11.189-9.101 11.189-3.106 0-5.572-1.397-6.858-3.835h-.104v10.858h-4.477V51.646h4.333v3.646h.082c1.245-2.351 3.898-3.874 6.942-3.874 5.534 0 9.183 4.397 9.183 11.192z"/><path d="M169.895 43.498H174.372V73.57H169.895z"/><path d="M182.545 60.588h10.899c-.103-3.356-2.239-5.564-5.348-5.564-3.088 0-5.325 2.252-5.551 5.564zm15.128 6.543c-.602 3.981-4.458 6.71-9.39 6.71-6.34 0-10.278-4.272-10.278-11.127 0-6.877 3.957-11.337 10.091-11.337 6.032 0 9.825 4.167 9.825 10.814v1.543h-15.398v.271c0 3.751 2.341 6.208 5.864 6.208 2.488 0 4.436-1.186 5.035-3.082h4.251zm17.514-7.751h5.327c4.041 0 6.341-2.189 6.341-5.981s-2.3-5.962-6.319-5.962h-5.349V59.38zm6.572-15.882c5.801 0 9.845 4.022 9.845 9.879 0 5.877-4.126 9.918-9.992 9.918h-6.425v10.274h-4.64V43.498h11.212zm27.602 19.112c0-4.731-2.155-7.526-5.782-7.526-3.629 0-5.784 2.814-5.784 7.526 0 4.751 2.155 7.521 5.784 7.521 3.627 0 5.782-2.77 5.782-7.521zm-16.125 0c0-6.899 4.041-11.233 10.343-11.233 6.322 0 10.343 4.334 10.343 11.233 0 6.916-4 11.231-10.343 11.231s-10.343-4.315-10.343-11.231zm28.407 0c0 4.499 2.28 7.376 5.76 7.376 3.441 0 5.741-2.918 5.741-7.376 0-4.419-2.3-7.356-5.741-7.356-3.48 0-5.76 2.896-5.76 7.356zm-4.58 0c0-6.773 3.708-11.192 9.119-11.192 3.128 0 5.597 1.458 6.837 3.874h.087V43.498h4.496v30.071h-4.354V69.84h-.082c-1.284 2.499-3.774 3.959-6.943 3.959-5.452 0-9.16-4.416-9.16-11.189zm39.582-3.419c-.392-2.313-2.196-4.041-5.139-4.041-3.441 0-5.721 2.896-5.721 7.46 0 4.669 2.302 7.48 5.762 7.48 2.777 0 4.602-1.397 5.098-3.937h4.311c-.496 4.603-4.166 7.688-9.45 7.688-6.218 0-10.278-4.272-10.278-11.231 0-6.816 4.06-11.233 10.237-11.233 5.594 0 9.077 3.543 9.45 7.814h-4.27zm21.122 6.17v-1.69l-5.365.334c-2.673.167-4.186 1.334-4.186 3.208 0 1.918 1.575 3.17 3.979 3.17 3.128 0 5.572-2.17 5.572-5.022zm-14.068 1.978c0-3.833 2.918-6.148 8.101-6.46l5.967-.334v-1.666c0-2.439-1.594-3.814-4.308-3.814-2.49 0-4.229 1.189-4.58 3.085h-4.186c.123-3.962 3.791-6.773 8.886-6.773 5.204 0 8.646 2.855 8.646 7.167v15.025h-4.289v-3.605h-.104c-1.267 2.438-4.021 3.981-6.885 3.981-4.265 0-7.248-2.666-7.248-6.606zm31.017-15.94c4.83 0 8.291 2.685 8.394 6.562h-4.207c-.185-1.937-1.823-3.124-4.31-3.124-2.425 0-4.041 1.124-4.041 2.833 0 1.313 1.076 2.187 3.338 2.749l3.667.857c4.393 1.06 6.052 2.685 6.052 5.898 0 3.957-3.73 6.667-9.057 6.667-5.141 0-8.6-2.647-8.932-6.65h4.434c.313 2.107 1.989 3.231 4.705 3.231 2.673 0 4.354-1.105 4.354-2.853 0-1.356-.831-2.085-3.109-2.668l-3.899-.957c-3.937-.961-5.926-2.983-5.926-6.024 0-3.875 3.46-6.521 8.537-6.521zm18.617-4.942v5.189h4.147v3.564h-4.147v12.086c0 1.879.831 2.753 2.654 2.753.455 0 1.182-.063 1.471-.104v3.542c-.496.126-1.49.208-2.485.208-4.414 0-6.136-1.668-6.136-5.918V55.21h-3.171v-3.564h3.171v-5.189h4.496zm16.18 4.942c4.831 0 8.289 2.685 8.393 6.562h-4.207c-.186-1.937-1.823-3.124-4.311-3.124-2.425 0-4.041 1.124-4.041 2.833 0 1.313 1.077 2.187 3.338 2.749l3.668.857c4.395 1.06 6.051 2.685 6.051 5.898 0 3.957-3.73 6.667-9.057 6.667-5.139 0-8.599-2.647-8.932-6.65h4.434c.313 2.107 1.989 3.231 4.705 3.231 2.676 0 4.354-1.105 4.354-2.853 0-1.356-.831-2.085-3.109-2.668l-3.896-.957c-3.94-.961-5.929-2.983-5.929-6.024 0-3.875 3.461-6.521 8.539-6.521zM103.606 33.575h-9.12V19.126h9.12v2.041h-6.89v4.085h6.521v1.942h-6.521v4.337h6.89v2.044zm7.234-11.115c2.439 0 4.033 1.141 4.241 3.063h-2.05c-.2-.801-.975-1.312-2.191-1.312-1.195 0-2.1.571-2.1 1.421 0 .652.547 1.063 1.722 1.334l1.803.419c2.059.482 3.025 1.373 3.025 2.974 0 2.053-1.9 3.424-4.489 3.424-2.581 0-4.262-1.17-4.452-3.102h2.14c.27.84 1.067 1.361 2.36 1.361 1.335 0 2.281-.601 2.281-1.473 0-.651-.508-1.072-1.592-1.331l-1.893-.441c-2.061-.492-3.017-1.421-3.017-3.044 0-1.932 1.763-3.293 4.212-3.293zm14.432 3.773c-.248-1.061-1.125-1.85-2.558-1.85-1.794 0-2.887 1.38-2.887 3.702 0 2.366 1.105 3.778 2.887 3.778 1.354 0 2.281-.623 2.558-1.795h2.083c-.279 2.194-1.953 3.715-4.631 3.715-3.157 0-5.088-2.141-5.088-5.698 0-3.492 1.921-5.625 5.078-5.625 2.719 0 4.362 1.591 4.641 3.773h-2.083zm8.06-5.386l2.5-3.445h2.509l-2.798 3.445h-2.211zm5.905 12.728h-2.062v-1.734h-.168c-.528 1.242-1.633 1.942-3.275 1.942-2.401 0-3.735-1.47-3.735-4.034v-7.078h2.14v6.518c0 1.761.706 2.603 2.281 2.603 1.731 0 2.68-1.034 2.68-2.746v-6.375h2.139v10.904zm10.509-7.342c-.248-1.061-1.125-1.85-2.558-1.85-1.794 0-2.887 1.38-2.887 3.702 0 2.366 1.105 3.778 2.887 3.778 1.354 0 2.281-.623 2.558-1.795h2.083c-.279 2.194-1.953 3.715-4.631 3.715-3.157 0-5.088-2.141-5.088-5.698 0-3.492 1.921-5.625 5.078-5.625 2.719 0 4.362 1.591 4.641 3.773h-2.083zm4.925-7.819h2.121v6.007h.169c.527-1.222 1.671-1.951 3.306-1.951 2.309 0 3.733 1.472 3.733 4.063v7.042h-2.141v-6.509c0-1.744-.807-2.625-2.319-2.625-1.753 0-2.729 1.114-2.729 2.765v6.369h-2.14V18.414zm18.995 11.143v-.91l-2.649.169c-1.495.102-2.172.613-2.172 1.574 0 .981.848 1.552 2.013 1.552 1.611 0 2.808-1.034 2.808-2.385zm-6.972.933c0-1.962 1.455-3.095 4.034-3.255l2.938-.169v-.942c0-1.153-.756-1.802-2.22-1.802-1.197 0-2.023.441-2.262 1.211h-2.071c.22-1.872 1.973-3.073 4.431-3.073 2.719 0 4.251 1.361 4.251 3.664v7.451h-2.062v-1.533h-.166c-.648 1.089-1.835 1.712-3.258 1.712-2.09 0-3.615-1.272-3.615-3.264z"/><path d="M179.246 18.414H181.387V33.575H179.246z"/><path d="M192.385 28.117c0-2.364-1.055-3.746-2.907-3.746-1.862 0-2.909 1.382-2.909 3.746 0 2.382 1.047 3.753 2.909 3.753 1.852 0 2.907-1.38 2.907-3.753zm-8.027 0c0-3.514 1.953-5.657 5.12-5.657 3.157 0 5.108 2.143 5.108 5.657 0 3.535-1.941 5.666-5.108 5.666-3.176 0-5.12-2.131-5.12-5.666zm20.621-1h5.479c-.051-1.712-1.084-2.826-2.671-2.826-1.582 0-2.687 1.121-2.808 2.826zm7.528 3.513c-.486 1.952-2.218 3.153-4.698 3.153-3.107 0-5.009-2.141-5.009-5.628 0-3.484 1.943-5.695 4.999-5.695 3.017 0 4.838 2.073 4.838 5.497v.75h-7.658v.121c.072 1.911 1.178 3.124 2.89 3.124 1.295 0 2.182-.472 2.579-1.322h2.059zm3.005-7.959h2.062v1.731h.159c.527-1.213 1.604-1.942 3.236-1.942 2.42 0 3.755 1.46 3.755 4.056v7.059h-2.141v-6.519c0-1.753-.756-2.625-2.341-2.625-1.582 0-2.589 1.063-2.589 2.763v6.381h-2.141V22.671z"/></g></g><defs><linearGradient id="_Linear2" x2="1" gradientUnits="userSpaceOnUse" gradientTransform="matrix(0 60.9307 -60.5962 0 48.4 16.034)"><stop offset="0" stop-color="#f452ff"/><stop offset="1" stop-color="#832ac1"/></linearGradient></defs></svg>