<svg clip-rule="evenodd" fill-rule="evenodd" stroke-linejoin="round" stroke-miterlimit="2" viewBox="0 0 397 97" xmlns="http://www.w3.org/2000/svg" xmlns:xlink="http://www.w3.org/1999/xlink"><clipPath id="a"><path clip-rule="evenodd" d="m0 0h397v96.858h-397z"/></clipPath><path d="m0 0h397v96.858h-397z" fill="none"/><g clip-path="url(#a)"><path d="m374.05 0h-351.091c-.884 0-1.755 0-2.637.005-.737.005-1.469.019-2.213.031-1.601.041-3.224.141-4.826.429-1.611.283-3.109.768-4.575 1.518-1.443.741-2.76 1.707-3.899 2.855-1.153 1.145-2.107 2.475-2.837 3.925-.749 1.472-1.225 2.986-1.505 4.608-.291 1.603-.39 3.226-.433 4.848-.022.743-.024 1.487-.034 2.23v55.969c.01.753.012 1.48.034 2.233.043 1.622.142 3.245.433 4.848.28 1.622.756 3.143 1.505 4.61.73 1.443 1.684 2.773 2.837 3.908 1.139 1.158 2.456 2.119 3.899 2.855 1.466.758 2.964 1.235 4.575 1.528 1.602.288 3.225.383 4.826.429.744.017 1.476.024 2.213.024.882.005 1.753.005 2.637.005h351.091c.867 0 1.746 0 2.611-.005.734 0 1.488-.007 2.22-.024 1.614-.046 3.232-.141 4.816-.429 1.614-.293 3.114-.77 4.598-1.528 1.437-.736 2.754-1.697 3.894-2.855 1.146-1.135 2.102-2.465 2.844-3.908.739-1.467 1.218-2.988 1.49-4.61.299-1.603.393-3.226.448-4.848.01-.753.01-1.48.01-2.233.019-.879.019-1.755.019-2.649v-50.676c0-.888 0-1.767-.019-2.644 0-.743 0-1.487-.01-2.23-.055-1.622-.149-3.245-.448-4.848-.272-1.622-.751-3.136-1.49-4.608-.742-1.45-1.698-2.78-2.844-3.925-1.14-1.148-2.457-2.114-3.894-2.855-1.484-.75-2.984-1.235-4.598-1.518-1.584-.288-3.202-.388-4.816-.429-.732-.012-1.486-.026-2.22-.031-.865-.005-1.744-.005-2.611-.005z" fill="#a6a6a6" fill-rule="nonzero"/><path d="m20.334 94.739c-.734 0-1.449-.007-2.177-.024-1.346-.039-2.942-.114-4.5-.395-1.472-.269-2.777-.702-3.991-1.327-1.257-.642-2.384-1.47-3.364-2.463-.997-.983-1.816-2.113-2.459-3.38-.623-1.223-1.05-2.535-1.305-4.015-.296-1.627-.371-3.281-.402-4.54-.014-.508-.036-2.211-.036-2.211v-55.935s.022-1.676.036-2.167c.031-1.269.106-2.92.4-4.533.255-1.487.684-2.797 1.307-4.024.641-1.269 1.46-2.407 2.445-3.386.997-1.002 2.128-1.833 3.376-2.474 1.238-.632 2.543-1.063 3.983-1.318 1.621-.293 3.265-.365 4.515-.397l2.175-.031h356.314l2.199.031c1.233.032 2.878.104 4.474.395 1.452.254 2.765.688 4.024 1.327 1.236.634 2.365 1.465 3.352 2.458.985.985 1.809 2.126 2.464 3.402.621 1.237 1.045 2.547 1.288 3.99.28 1.528.366 3.097.419 4.572.007.685.007 1.421.007 2.155.02.908.02 1.773.02 2.644v50.676c0 .882 0 1.739-.02 2.603 0 .79 0 1.511-.009 2.252-.051 1.426-.137 2.996-.412 4.49-.248 1.484-.672 2.796-1.3 4.043-.648 1.257-1.474 2.395-2.447 3.354-.995 1.012-2.122 1.838-3.369 2.477-1.25.637-2.524 1.061-4.017 1.332-1.543.281-3.14.356-4.501.395-.705.017-1.445.024-2.162.024l-2.611.005z" fill="#fff" fill-rule="nonzero"/><path d="m15.643 12.496h71.472v71.866h-71.472z" fill="none"/><g fill-rule="nonzero"><path d="m22.715 42.066c-2.263 0-4.094 1.841-4.094 4.117v4.492c0 2.275 1.831 4.117 4.094 4.117 2.264 0 4.095-1.842 4.095-4.117v-4.492c0-2.276-1.831-4.117-4.095-4.117z" fill="#0066d9"/><path d="m80.042 42.066c-2.264 0-4.095 1.841-4.095 4.117v4.492c0 2.275 1.831 4.117 4.095 4.117 2.263 0 4.094-1.842 4.094-4.117v-4.492c0-2.276-1.831-4.117-4.094-4.117z" fill="#4285f4"/><path d="m36.861 55.541c-2.264 0-4.095 1.841-4.095 4.117v4.492c0 2.275 1.831 4.117 4.095 4.117 2.263 0 4.094-1.842 4.094-4.117v-4.492c0-2.276-1.831-4.117-4.094-4.117z" fill="#ea4335"/><path d="m36.861 28.591c-2.264 0-4.095 1.841-4.095 4.117v14.692h.004c.052 2.23 1.861 4.023 4.091 4.023s4.039-1.793 4.091-4.023h.003v-14.692c0-2.276-1.831-4.117-4.094-4.117z" fill="#ea4335"/><path d="m65.896 28.591c-2.263 0-4.095 1.841-4.095 4.117v4.492c0 2.276 1.832 4.117 4.095 4.117s4.095-1.841 4.095-4.117v-4.492c0-2.276-1.832-4.117-4.095-4.117z" fill="#34a853"/><path d="m51.378 15.49c-2.263 0-4.094 1.842-4.094 4.117v4.492c0 2.276 1.831 4.117 4.094 4.117 2.264 0 4.095-1.841 4.095-4.117v-4.492c0-2.275-1.831-4.117-4.095-4.117z" fill="#fab908"/><path d="m51.378 68.641c-2.263 0-4.094 1.842-4.094 4.118v4.491c0 2.276 1.831 4.118 4.094 4.118 2.264 0 4.095-1.842 4.095-4.118v-4.491c0-2.276-1.831-4.118-4.095-4.118z" fill="#fab908"/><path d="m65.896 45.434c-2.263 0-4.095 1.842-4.095 4.118v14.598c0 2.275 1.832 4.117 4.095 4.117s4.095-1.842 4.095-4.117v-14.598c0-2.276-1.832-4.118-4.095-4.118z" fill="#34a853"/><path d="m55.473 36.451c0-2.276-1.831-4.117-4.095-4.117-2.263 0-4.094 1.841-4.094 4.117v23.956c0 2.275 1.831 4.117 4.094 4.117 2.264 0 4.095-1.842 4.095-4.117z" fill="#fab908"/><path d="m236.262 73.875v-10.881h5.819c1.482 0 2.853-.336 4.113-1.006 1.26-.671 2.267-1.609 3.021-2.814.753-1.205 1.13-2.565 1.13-4.08 0-1.516-.377-2.876-1.13-4.081-.754-1.205-1.761-2.142-3.021-2.813s-2.631-1.006-4.113-1.006h-8.932v26.681zm5.893-13.9h-5.893v-9.763h5.893c.988 0 1.859.236 2.613.708.753.472 1.34 1.081 1.76 1.826s.63 1.528.63 2.348-.21 1.602-.63 2.347c-.42.746-1.007 1.354-1.76 1.826-.754.472-1.625.708-2.613.708zm18.604 14.496c1.853 0 3.52-.447 5.003-1.341 1.482-.895 2.637-2.112 3.465-3.652.827-1.541 1.241-3.242 1.241-5.106 0-1.863-.414-3.564-1.241-5.105-.828-1.54-1.983-2.757-3.465-3.652-1.483-.894-3.15-1.341-5.003-1.341s-3.521.447-5.003 1.341c-1.483.895-2.638 2.112-3.465 3.652-.828 1.541-1.242 3.242-1.242 5.105 0 1.864.414 3.565 1.242 5.106.827 1.54 1.982 2.757 3.465 3.652 1.482.894 3.15 1.341 5.003 1.341zm0-2.869c-1.162 0-2.249-.292-3.262-.876s-1.822-1.422-2.427-2.515-.908-2.373-.908-3.839c0-1.465.303-2.745.908-3.838s1.414-1.931 2.427-2.515 2.1-.876 3.262-.876c1.161 0 2.242.292 3.242.876 1.001.584 1.804 1.422 2.409 2.515.606 1.093.908 2.373.908 3.838 0 1.466-.302 2.746-.908 3.839-.605 1.093-1.408 1.931-2.409 2.515-1 .584-2.081.876-3.242.876zm20.864 2.869c1.458 0 2.755-.329 3.891-.987 1.137-.659 2.002-1.46 2.595-2.404h.148v2.795h3.002v-26.681h-3.15v7.863l.148 2.645h-.148c-.593-.969-1.458-1.782-2.595-2.441-1.136-.658-2.433-.987-3.891-.987-1.68 0-3.206.435-4.577 1.304-1.371.87-2.452 2.075-3.242 3.615-.791 1.54-1.186 3.267-1.186 5.179 0 1.938.395 3.671 1.186 5.199.79 1.528 1.871 2.726 3.242 3.596 1.371.869 2.897 1.304 4.577 1.304zm.371-2.869c-1.087 0-2.113-.298-3.076-.895-.964-.596-1.736-1.447-2.316-2.552-.581-1.106-.871-2.366-.871-3.783 0-1.416.29-2.676.871-3.782.58-1.105 1.352-1.956 2.316-2.552.963-.597 1.989-.895 3.076-.895 1.111 0 2.143.298 3.094.895.951.596 1.717 1.44 2.298 2.534.58 1.093.871 2.36.871 3.8 0 1.441-.291 2.708-.871 3.801-.581 1.093-1.347 1.938-2.298 2.534-.951.597-1.983.895-3.094.895zm21.791 2.869c2.026 0 3.749-.484 5.169-1.453 1.421-.969 2.453-2.236 3.095-3.801l-2.817-1.193c-.469 1.143-1.186 2.025-2.149 2.646-.964.621-2.112.932-3.447.932-1.111 0-2.149-.305-3.113-.913-.963-.609-1.735-1.46-2.316-2.553-.58-1.093-.871-2.347-.871-3.764 0-1.416.291-2.67.871-3.763.581-1.093 1.353-1.944 2.316-2.553.964-.608 2.002-.913 3.113-.913 1.31 0 2.428.305 3.354.913.927.609 1.625 1.497 2.094 2.665l2.854-1.193c-.593-1.59-1.588-2.863-2.984-3.819-1.395-.957-3.119-1.435-5.169-1.435-1.829 0-3.472.435-4.929 1.304-1.458.87-2.594 2.075-3.41 3.615-.815 1.54-1.223 3.267-1.223 5.179 0 1.913.408 3.634 1.223 5.162.816 1.527 1.952 2.732 3.41 3.614 1.457.882 3.1 1.323 4.929 1.323zm17.01 0c1.359 0 2.582-.323 3.669-.969s1.902-1.428 2.446-2.347h.148v2.72h3.002v-12.036c0-2.336-.735-4.18-2.205-5.534s-3.49-2.031-6.06-2.031c-1.581 0-3.02.323-4.317.969s-2.316 1.54-3.057 2.683l2.371 1.788c.519-.819 1.223-1.459 2.113-1.919.889-.459 1.865-.689 2.928-.689 1.507 0 2.754.429 3.743 1.286.988.857 1.482 1.993 1.482 3.409v1.155c-.519-.322-1.266-.608-2.242-.857-.976-.248-2.032-.372-3.169-.372-2.297 0-4.2.565-5.707 1.695-1.507 1.131-2.261 2.702-2.261 4.714 0 1.217.297 2.304.89 3.261.593.956 1.433 1.708 2.52 2.254 1.087.547 2.322.82 3.706.82zm.296-2.795c-1.21 0-2.211-.323-3.001-.969-.791-.646-1.186-1.49-1.186-2.534 0-1.142.438-2.074 1.315-2.794.877-.721 2.181-1.081 3.91-1.081.964 0 1.878.124 2.742.373.865.248 1.594.571 2.187.968 0 1.094-.272 2.1-.815 3.019-.544.919-1.273 1.652-2.187 2.198-.914.547-1.902.82-2.965.82zm19.234 2.795c1.384 0 2.644-.236 3.78-.708 1.137-.472 2.039-1.149 2.706-2.031s1-1.907 1-3.074c0-1.342-.469-2.478-1.408-3.41-.939-.931-2.335-1.633-4.188-2.105l-2.742-.708c-1.087-.273-1.903-.628-2.446-1.062-.544-.435-.815-1-.815-1.696 0-.745.389-1.36 1.167-1.844.778-.485 1.686-.727 2.724-.727 2.149 0 3.644.845 4.484 2.534l2.742-1.267c-.543-1.292-1.463-2.298-2.761-3.018-1.297-.721-2.773-1.081-4.428-1.081-1.26 0-2.434.224-3.521.671s-1.958 1.087-2.612 1.919c-.655.832-.983 1.795-.983 2.888 0 1.416.482 2.571 1.446 3.465.963.895 2.199 1.528 3.706 1.901l2.297.596c1.433.348 2.483.764 3.15 1.248.668.485 1.001 1.124 1.001 1.919 0 .895-.42 1.584-1.26 2.069-.84.484-1.853.726-3.039.726-1.112 0-2.131-.31-3.057-.931-.927-.621-1.625-1.503-2.094-2.646l-2.817 1.267c.569 1.49 1.532 2.714 2.891 3.67 1.359.957 3.051 1.435 5.077 1.435zm17.492-.298c.593 0 1.081-.037 1.464-.112.383-.074.76-.199 1.13-.373v-3.092c-.667.422-1.358.633-2.075.633-.889 0-1.569-.273-2.038-.82-.396-.497-.593-1.267-.593-2.31v-10.359h4.595v-2.87h-4.595v-5.366h-3.15v5.366h-3.299v2.87h3.299v11.141c0 .895.123 1.652.37 2.274.247.621.618 1.167 1.112 1.639.445.422.995.758 1.649 1.006.655.249 1.365.373 2.131.373zm12.749.298c1.383 0 2.643-.236 3.78-.708 1.136-.472 2.038-1.149 2.705-2.031s1.001-1.907 1.001-3.074c0-1.342-.47-2.478-1.409-3.41-.938-.931-2.334-1.633-4.187-2.105l-2.743-.708c-1.087-.273-1.902-.628-2.446-1.062-.543-.435-.815-1-.815-1.696 0-.745.389-1.36 1.167-1.844.779-.485 1.687-.727 2.724-.727 2.15 0 3.644.845 4.484 2.534l2.743-1.267c-.544-1.292-1.464-2.298-2.761-3.018-1.297-.721-2.773-1.081-4.429-1.081-1.26 0-2.433.224-3.52.671s-1.958 1.087-2.613 1.919-.982 1.795-.982 2.888c0 1.416.482 2.571 1.445 3.465.964.895 2.199 1.528 3.706 1.901l2.298.596c1.433.348 2.483.764 3.15 1.248.667.485 1.001 1.124 1.001 1.919 0 .895-.42 1.584-1.26 2.069-.84.484-1.853.726-3.039.726-1.112 0-2.131-.31-3.058-.931-.926-.621-1.624-1.503-2.094-2.646l-2.816 1.267c.568 1.49 1.532 2.714 2.891 3.67 1.358.957 3.051 1.435 5.077 1.435z"/><path d="m186.702 54.586c2.334 0 4.179 1.044 5.13 2.203h.144v-1.594h4.093v17.593c0 7.245-4.237 10.202-9.252 10.202-4.727 0-7.581-3.188-8.647-5.797l3.718-1.565c.663 1.594 2.277 3.478 4.9 3.478 3.2 0 5.188-2 5.188-5.739v-1.42h-.144c-.951 1.188-2.796 2.232-5.13 2.232-4.872 0-9.339-4.29-9.339-9.767 0-5.536 4.467-9.826 9.339-9.826zm-42.227.29c5.39 0 9.771 4.116 9.771 9.796 0 5.652-4.381 9.797-9.771 9.797-5.391 0-9.772-4.145-9.772-9.797 0-5.68 4.381-9.796 9.772-9.796zm21.329 0c5.39 0 9.772 4.116 9.772 9.796 0 5.652-4.382 9.797-9.772 9.797s-9.771-4.145-9.771-9.797c0-5.68 4.381-9.796 9.771-9.796zm48.713 0c5.044 0 7.523 4.029 8.33 6.231l.432 1.102-13.028 5.42c1.009 1.942 2.536 2.956 4.727 2.956s3.689-1.072 4.814-2.695l3.314 2.231c-1.095 1.594-3.66 4.348-8.128 4.348-5.534 0-9.656-4.319-9.656-9.797 0-5.825 4.179-9.796 9.195-9.796zm-95.292-11.013c4.612 0 7.898 1.825 10.376 4.202l-2.94 2.927c-1.758-1.681-4.15-2.985-7.436-2.985-6.082 0-10.838 4.927-10.838 11.043 0 6.115 4.756 11.042 10.838 11.042 3.949 0 6.197-1.594 7.638-3.043 1.182-1.188 1.96-2.898 2.248-5.217h-9.886v-4.145h13.922c.144.754.23 1.624.23 2.609 0 3.13-.836 6.985-3.574 9.709-2.68 2.783-6.082 4.261-10.578 4.261-8.359 0-15.363-6.811-15.363-15.187 0-8.405 7.004-15.216 15.363-15.216zm84.022 1.159v28.78h-4.266v-28.78zm-58.772 13.68c-2.969 0-5.506 2.405-5.506 5.941 0 3.507 2.566 5.942 5.506 5.942s5.505-2.435 5.505-5.942c0-3.536-2.565-5.941-5.505-5.941zm21.329 0c-2.969 0-5.505 2.405-5.505 5.941 0 3.507 2.565 5.942 5.505 5.942s5.506-2.435 5.506-5.942c0-3.536-2.537-5.941-5.506-5.941zm21.272-.261c-2.94 0-5.419 2.522-5.419 5.971 0 3.42 2.479 5.912 5.419 5.912 2.912 0 5.218-2.463 5.189-5.912 0-3.449-2.277-5.971-5.189-5.971zm27.585.203c-2.191 0-5.217 1.942-5.102 5.71l8.705-3.623c-.461-1.247-1.902-2.087-3.603-2.087z"/><path d="m117.25 34.322v-2.057h-9.55v-6.76h8.221v-2.057h-8.221v-6.131h9.42v-2.07h-11.921v19.075zm8.589.262c1.607 0 2.914-.382 3.921-1.147 1.008-.764 1.512-1.779 1.512-3.045 0-.76-.181-1.404-.541-1.933-.36-.528-.914-.98-1.661-1.356-.747-.375-1.722-.698-2.925-.969s-2.035-.555-2.495-.852-.691-.738-.691-1.323c0-.62.248-1.122.743-1.506.495-.385 1.181-.577 2.059-.577.851 0 1.557.24 2.117.721.56.48.84 1.052.84 1.716h2.423c0-1.293-.497-2.354-1.491-3.184-.995-.829-2.291-1.244-3.889-1.244-1.52 0-2.769.402-3.746 1.205-.977.804-1.466 1.786-1.466 2.948 0 .698.172 1.301.515 1.808.343.506.873.943 1.589 1.31.717.367 1.685.681 2.906.943 1.22.262 2.076.574 2.566.937.491.362.736.871.736 1.526 0 .62-.275 1.116-.827 1.487-.551.371-1.283.557-2.195.557-.99 0-1.787-.238-2.391-.714s-.927-1.121-.971-1.933h-2.41c0 .839.245 1.618.736 2.339.491.72 1.171 1.281 2.039 1.683.869.402 1.868.603 2.997.603zm14.894 0c.956 0 1.861-.219 2.717-.655.855-.437 1.539-1.022 2.052-1.756.512-.733.79-1.506.834-2.319h-2.281c-.069.786-.425 1.442-1.068 1.966s-1.394.786-2.254.786c-1.242 0-2.197-.441-2.866-1.324-.669-.882-1.003-2.139-1.003-3.773v-.458c0-1.677.336-2.959 1.009-3.845.674-.887 1.622-1.33 2.847-1.33.912 0 1.679.295 2.3.884.621.59.966 1.343 1.035 2.26h2.281c-.07-1.519-.628-2.755-1.675-3.707-1.046-.952-2.36-1.428-3.941-1.428-1.285 0-2.399.297-3.342.891-.942.594-1.665 1.428-2.169 2.502s-.756 2.301-.756 3.681v.406c0 2.236.567 3.998 1.701 5.286 1.133 1.289 2.66 1.933 4.579 1.933zm13.553 0c1.815 0 3.192-.555 4.13-1.664l.052 1.402h2.293v-14.175h-2.41v10.31c-.608 1.38-1.833 2.07-3.675 2.07-1.737 0-2.605-1.074-2.605-3.223v-9.157h-2.411v9.223c.009 1.72.406 3.019 1.193 3.897.786.878 1.93 1.317 3.433 1.317zm16.457 0c.956 0 1.861-.219 2.717-.655.855-.437 1.539-1.022 2.052-1.756.512-.733.79-1.506.834-2.319h-2.28c-.07.786-.426 1.442-1.069 1.966-.642.524-1.394.786-2.254.786-1.242 0-2.197-.441-2.866-1.324-.669-.882-1.003-2.139-1.003-3.773v-.458c0-1.677.337-2.959 1.01-3.845.673-.887 1.622-1.33 2.846-1.33.912 0 1.679.295 2.3.884.621.59.966 1.343 1.036 2.26h2.28c-.07-1.519-.628-2.755-1.674-3.707-1.047-.952-2.361-1.428-3.942-1.428-1.285 0-2.399.297-3.341.891-.943.594-1.666 1.428-2.17 2.502-.503 1.074-.755 2.301-.755 3.681v.406c0 2.236.566 3.998 1.7 5.286 1.133 1.289 2.66 1.933 4.579 1.933zm11.39-.262v-10.101c.33-.681.791-1.231 1.381-1.65.591-.42 1.277-.629 2.059-.629.964 0 1.674.244 2.13.733s.688 1.245.697 2.267v9.38h2.41v-9.367c-.026-3.38-1.528-5.07-4.508-5.07-1.711 0-3.101.659-4.169 1.978v-7.664h-2.41v20.123zm17.305.262c1.555 0 2.892-.585 4.013-1.756.087.716.199 1.214.338 1.494h2.528v-.21c-.33-.768-.495-1.803-.495-3.105v-6.524c-.035-1.432-.513-2.557-1.433-3.373-.921-.817-2.193-1.225-3.818-1.225-1.025 0-1.965.192-2.82.576-.856.385-1.533.906-2.033 1.566-.499.659-.749 1.343-.749 2.05h2.423c0-.62.291-1.148.873-1.585s1.303-.655 2.163-.655c.982 0 1.724.251 2.228.753s.756 1.177.756 2.024v1.114h-2.346c-2.023 0-3.593.408-4.709 1.225-1.117.816-1.675 1.963-1.675 3.439 0 1.214.446 2.216 1.336 3.006.89.791 2.03 1.186 3.42 1.186zm.352-2.109c-.791 0-1.438-.214-1.942-.642-.503-.428-.755-1.022-.755-1.782 0-1.738 1.476-2.607 4.429-2.607h1.89v2.908c-.304.629-.795 1.14-1.473 1.533-.677.393-1.394.59-2.149.59zm12.888 1.847v-10.062c.564-1.353 1.637-2.03 3.218-2.03.425 0 .82.03 1.185.092v-2.254c-.243-.122-.599-.183-1.068-.183-1.451 0-2.571.633-3.361 1.899l-.04-1.637h-2.345v14.175zm20.408.262c2.362 0 4.134-.913 5.315-2.738l-1.472-1.153c-.443.576-.96 1.039-1.55 1.389-.591.349-1.312.524-2.163.524-1.199 0-2.187-.431-2.964-1.291s-1.183-1.989-1.218-3.386h9.55v-1.009c0-2.262-.508-4-1.525-5.214-1.016-1.214-2.44-1.821-4.273-1.821-1.12 0-2.161.312-3.12.937-.96.624-1.707 1.489-2.241 2.594-.534 1.104-.801 2.36-.801 3.766v.445c0 2.114.599 3.802 1.797 5.064 1.199 1.262 2.754 1.893 4.665 1.893zm3.088-8.647h-7.062c.156-1.283.565-2.281 1.225-2.993s1.476-1.068 2.449-1.068c1.008 0 1.807.339 2.397 1.015.591.677.921 1.632.991 2.863zm8.275 8.385v-10.101c.33-.681.791-1.231 1.381-1.65.591-.42 1.277-.629 2.059-.629.964 0 1.674.244 2.13.733s.688 1.245.697 2.267v9.38h2.41v-9.367c-.026-3.38-1.528-5.07-4.507-5.07-1.738 0-3.145.681-4.222 2.044l-.078-1.782h-2.28v14.175z"/></g></g></svg>